<svg xmlns="http://www.w3.org/2000/svg" xml:space="preserve" xmlns:xlink="http://www.w3.org/1999/xlink" style="max-width: 100%;height: auto;" width="1000" height="1250" viewBox="0 0 1000 1250">
<rect width="925.83333333333" height="925.83333333333" fill="#ffffff" x="41.666666666667" y="41.666666666667" />
<g transform="scale(41.666666666667)" fill="#000000"><path d="M1.3,24l21.3,0c0.7,0,1.3-0.6,1.3-1.3l0-21.3C24,0.6,23.4,0,22.7,0L1.3,0C0.6,0,0,0.6,0,1.3l0,21.3 C0,23.4,0.6,24,1.3,24z M1,2c0-0.6,0.5-1,1-1l20,0c0.6,0,1,0.5,1,1v20c0,0.6-0.5,1-1,1L2,23c-0.6,0-1-0.5-1-1V2z"/><path d="M1,30h22c0.5,0,1-0.4,1-1v-3c0-0.5-0.4-1-1-1H13l-1-1l-1,1H1c-0.5,0-1,0.4-1,1v3C0,29.6,0.4,30,1,30z"/></g>
<g fill="#000000">
<g transform="translate(356,100) scale(5.4933333333333)"><rect width="6" height="6"/></g>
<g transform="translate(420,100) scale(5.4933333333333)"><rect width="6" height="6"/></g>
<g transform="translate(580,100) scale(5.4933333333333)"><rect width="6" height="6"/></g>
<g transform="translate(356,132) scale(5.4933333333333)"><rect width="6" height="6"/></g>
<g transform="translate(420,132) scale(5.4933333333333)"><rect width="6" height="6"/></g>
<g transform="translate(452,132) scale(5.4933333333333)"><rect width="6" height="6"/></g>
<g transform="translate(484,132) scale(5.4933333333333)"><rect width="6" height="6"/></g>
<g transform="translate(516,132) scale(5.4933333333333)"><rect width="6" height="6"/></g>
<g transform="translate(580,132) scale(5.4933333333333)"><rect width="6" height="6"/></g>
<g transform="translate(356,164) scale(5.4933333333333)"><rect width="6" height="6"/></g>
<g transform="translate(388,164) scale(5.4933333333333)"><rect width="6" height="6"/></g>
<g transform="translate(420,164) scale(5.4933333333333)"><rect width="6" height="6"/></g>
<g transform="translate(484,164) scale(5.4933333333333)"><rect width="6" height="6"/></g>
<g transform="translate(516,164) scale(5.4933333333333)"><rect width="6" height="6"/></g>
<g transform="translate(612,164) scale(5.4933333333333)"><rect width="6" height="6"/></g>
<g transform="translate(484,196) scale(5.4933333333333)"><rect width="6" height="6"/></g>
<g transform="translate(548,196) scale(5.4933333333333)"><rect width="6" height="6"/></g>
<g transform="translate(580,196) scale(5.4933333333333)"><rect width="6" height="6"/></g>
<g transform="translate(452,228) scale(5.4933333333333)"><rect width="6" height="6"/></g>
<g transform="translate(484,228) scale(5.4933333333333)"><rect width="6" height="6"/></g>
<g transform="translate(548,228) scale(5.4933333333333)"><rect width="6" height="6"/></g>
<g transform="translate(612,228) scale(5.4933333333333)"><rect width="6" height="6"/></g>
<g transform="translate(356,260) scale(5.4933333333333)"><rect width="6" height="6"/></g>
<g transform="translate(388,260) scale(5.4933333333333)"><rect width="6" height="6"/></g>
<g transform="translate(420,260) scale(5.4933333333333)"><rect width="6" height="6"/></g>
<g transform="translate(612,260) scale(5.4933333333333)"><rect width="6" height="6"/></g>
<g transform="translate(356,292) scale(5.4933333333333)"><rect width="6" height="6"/></g>
<g transform="translate(420,292) scale(5.4933333333333)"><rect width="6" height="6"/></g>
<g transform="translate(484,292) scale(5.4933333333333)"><rect width="6" height="6"/></g>
<g transform="translate(548,292) scale(5.4933333333333)"><rect width="6" height="6"/></g>
<g transform="translate(612,292) scale(5.4933333333333)"><rect width="6" height="6"/></g>
<g transform="translate(356,324) scale(5.4933333333333)"><rect width="6" height="6"/></g>
<g transform="translate(388,324) scale(5.4933333333333)"><rect width="6" height="6"/></g>
<g transform="translate(452,324) scale(5.4933333333333)"><rect width="6" height="6"/></g>
<g transform="translate(484,324) scale(5.4933333333333)"><rect width="6" height="6"/></g>
<g transform="translate(516,324) scale(5.4933333333333)"><rect width="6" height="6"/></g>
<g transform="translate(580,324) scale(5.4933333333333)"><rect width="6" height="6"/></g>
<g transform="translate(612,324) scale(5.4933333333333)"><rect width="6" height="6"/></g>
<g transform="translate(164,356) scale(5.4933333333333)"><rect width="6" height="6"/></g>
<g transform="translate(196,356) scale(5.4933333333333)"><rect width="6" height="6"/></g>
<g transform="translate(228,356) scale(5.4933333333333)"><rect width="6" height="6"/></g>
<g transform="translate(292,356) scale(5.4933333333333)"><rect width="6" height="6"/></g>
<g transform="translate(356,356) scale(5.4933333333333)"><rect width="6" height="6"/></g>
<g transform="translate(420,356) scale(5.4933333333333)"><rect width="6" height="6"/></g>
<g transform="translate(612,356) scale(5.4933333333333)"><rect width="6" height="6"/></g>
<g transform="translate(644,356) scale(5.4933333333333)"><rect width="6" height="6"/></g>
<g transform="translate(676,356) scale(5.4933333333333)"><rect width="6" height="6"/></g>
<g transform="translate(708,356) scale(5.4933333333333)"><rect width="6" height="6"/></g>
<g transform="translate(804,356) scale(5.4933333333333)"><rect width="6" height="6"/></g>
<g transform="translate(836,356) scale(5.4933333333333)"><rect width="6" height="6"/></g>
<g transform="translate(868,356) scale(5.4933333333333)"><rect width="6" height="6"/></g>
<g transform="translate(132,388) scale(5.4933333333333)"><rect width="6" height="6"/></g>
<g transform="translate(164,388) scale(5.4933333333333)"><rect width="6" height="6"/></g>
<g transform="translate(260,388) scale(5.4933333333333)"><rect width="6" height="6"/></g>
<g transform="translate(388,388) scale(5.4933333333333)"><rect width="6" height="6"/></g>
<g transform="translate(420,388) scale(5.4933333333333)"><rect width="6" height="6"/></g>
<g transform="translate(580,388) scale(5.4933333333333)"><rect width="6" height="6"/></g>
<g transform="translate(676,388) scale(5.4933333333333)"><rect width="6" height="6"/></g>
<g transform="translate(740,388) scale(5.4933333333333)"><rect width="6" height="6"/></g>
<g transform="translate(804,388) scale(5.4933333333333)"><rect width="6" height="6"/></g>
<g transform="translate(100,420) scale(5.4933333333333)"><rect width="6" height="6"/></g>
<g transform="translate(196,420) scale(5.4933333333333)"><rect width="6" height="6"/></g>
<g transform="translate(260,420) scale(5.4933333333333)"><rect width="6" height="6"/></g>
<g transform="translate(292,420) scale(5.4933333333333)"><rect width="6" height="6"/></g>
<g transform="translate(324,420) scale(5.4933333333333)"><rect width="6" height="6"/></g>
<g transform="translate(356,420) scale(5.4933333333333)"><rect width="6" height="6"/></g>
<g transform="translate(388,420) scale(5.4933333333333)"><rect width="6" height="6"/></g>
<g transform="translate(420,420) scale(5.4933333333333)"><rect width="6" height="6"/></g>
<g transform="translate(484,420) scale(5.4933333333333)"><rect width="6" height="6"/></g>
<g transform="translate(516,420) scale(5.4933333333333)"><rect width="6" height="6"/></g>
<g transform="translate(580,420) scale(5.4933333333333)"><rect width="6" height="6"/></g>
<g transform="translate(772,420) scale(5.4933333333333)"><rect width="6" height="6"/></g>
<g transform="translate(836,420) scale(5.4933333333333)"><rect width="6" height="6"/></g>
<g transform="translate(868,420) scale(5.4933333333333)"><rect width="6" height="6"/></g>
<g transform="translate(228,452) scale(5.4933333333333)"><rect width="6" height="6"/></g>
<g transform="translate(356,452) scale(5.4933333333333)"><rect width="6" height="6"/></g>
<g transform="translate(420,452) scale(5.4933333333333)"><rect width="6" height="6"/></g>
<g transform="translate(612,452) scale(5.4933333333333)"><rect width="6" height="6"/></g>
<g transform="translate(676,452) scale(5.4933333333333)"><rect width="6" height="6"/></g>
<g transform="translate(708,452) scale(5.4933333333333)"><rect width="6" height="6"/></g>
<g transform="translate(740,452) scale(5.4933333333333)"><rect width="6" height="6"/></g>
<g transform="translate(772,452) scale(5.4933333333333)"><rect width="6" height="6"/></g>
<g transform="translate(836,452) scale(5.4933333333333)"><rect width="6" height="6"/></g>
<g transform="translate(868,452) scale(5.4933333333333)"><rect width="6" height="6"/></g>
<g transform="translate(100,484) scale(5.4933333333333)"><rect width="6" height="6"/></g>
<g transform="translate(292,484) scale(5.4933333333333)"><rect width="6" height="6"/></g>
<g transform="translate(324,484) scale(5.4933333333333)"><rect width="6" height="6"/></g>
<g transform="translate(356,484) scale(5.4933333333333)"><rect width="6" height="6"/></g>
<g transform="translate(516,484) scale(5.4933333333333)"><rect width="6" height="6"/></g>
<g transform="translate(580,484) scale(5.4933333333333)"><rect width="6" height="6"/></g>
<g transform="translate(772,484) scale(5.4933333333333)"><rect width="6" height="6"/></g>
<g transform="translate(804,484) scale(5.4933333333333)"><rect width="6" height="6"/></g>
<g transform="translate(836,484) scale(5.4933333333333)"><rect width="6" height="6"/></g>
<g transform="translate(868,484) scale(5.4933333333333)"><rect width="6" height="6"/></g>
<g transform="translate(100,516) scale(5.4933333333333)"><rect width="6" height="6"/></g>
<g transform="translate(132,516) scale(5.4933333333333)"><rect width="6" height="6"/></g>
<g transform="translate(228,516) scale(5.4933333333333)"><rect width="6" height="6"/></g>
<g transform="translate(324,516) scale(5.4933333333333)"><rect width="6" height="6"/></g>
<g transform="translate(356,516) scale(5.4933333333333)"><rect width="6" height="6"/></g>
<g transform="translate(420,516) scale(5.4933333333333)"><rect width="6" height="6"/></g>
<g transform="translate(452,516) scale(5.4933333333333)"><rect width="6" height="6"/></g>
<g transform="translate(484,516) scale(5.4933333333333)"><rect width="6" height="6"/></g>
<g transform="translate(516,516) scale(5.4933333333333)"><rect width="6" height="6"/></g>
<g transform="translate(580,516) scale(5.4933333333333)"><rect width="6" height="6"/></g>
<g transform="translate(612,516) scale(5.4933333333333)"><rect width="6" height="6"/></g>
<g transform="translate(708,516) scale(5.4933333333333)"><rect width="6" height="6"/></g>
<g transform="translate(740,516) scale(5.4933333333333)"><rect width="6" height="6"/></g>
<g transform="translate(772,516) scale(5.4933333333333)"><rect width="6" height="6"/></g>
<g transform="translate(100,548) scale(5.4933333333333)"><rect width="6" height="6"/></g>
<g transform="translate(196,548) scale(5.4933333333333)"><rect width="6" height="6"/></g>
<g transform="translate(292,548) scale(5.4933333333333)"><rect width="6" height="6"/></g>
<g transform="translate(324,548) scale(5.4933333333333)"><rect width="6" height="6"/></g>
<g transform="translate(388,548) scale(5.4933333333333)"><rect width="6" height="6"/></g>
<g transform="translate(420,548) scale(5.4933333333333)"><rect width="6" height="6"/></g>
<g transform="translate(452,548) scale(5.4933333333333)"><rect width="6" height="6"/></g>
<g transform="translate(548,548) scale(5.4933333333333)"><rect width="6" height="6"/></g>
<g transform="translate(676,548) scale(5.4933333333333)"><rect width="6" height="6"/></g>
<g transform="translate(708,548) scale(5.4933333333333)"><rect width="6" height="6"/></g>
<g transform="translate(740,548) scale(5.4933333333333)"><rect width="6" height="6"/></g>
<g transform="translate(772,548) scale(5.4933333333333)"><rect width="6" height="6"/></g>
<g transform="translate(836,548) scale(5.4933333333333)"><rect width="6" height="6"/></g>
<g transform="translate(868,548) scale(5.4933333333333)"><rect width="6" height="6"/></g>
<g transform="translate(100,580) scale(5.4933333333333)"><rect width="6" height="6"/></g>
<g transform="translate(196,580) scale(5.4933333333333)"><rect width="6" height="6"/></g>
<g transform="translate(228,580) scale(5.4933333333333)"><rect width="6" height="6"/></g>
<g transform="translate(260,580) scale(5.4933333333333)"><rect width="6" height="6"/></g>
<g transform="translate(324,580) scale(5.4933333333333)"><rect width="6" height="6"/></g>
<g transform="translate(388,580) scale(5.4933333333333)"><rect width="6" height="6"/></g>
<g transform="translate(452,580) scale(5.4933333333333)"><rect width="6" height="6"/></g>
<g transform="translate(516,580) scale(5.4933333333333)"><rect width="6" height="6"/></g>
<g transform="translate(612,580) scale(5.4933333333333)"><rect width="6" height="6"/></g>
<g transform="translate(676,580) scale(5.4933333333333)"><rect width="6" height="6"/></g>
<g transform="translate(772,580) scale(5.4933333333333)"><rect width="6" height="6"/></g>
<g transform="translate(868,580) scale(5.4933333333333)"><rect width="6" height="6"/></g>
<g transform="translate(100,612) scale(5.4933333333333)"><rect width="6" height="6"/></g>
<g transform="translate(164,612) scale(5.4933333333333)"><rect width="6" height="6"/></g>
<g transform="translate(228,612) scale(5.4933333333333)"><rect width="6" height="6"/></g>
<g transform="translate(260,612) scale(5.4933333333333)"><rect width="6" height="6"/></g>
<g transform="translate(292,612) scale(5.4933333333333)"><rect width="6" height="6"/></g>
<g transform="translate(356,612) scale(5.4933333333333)"><rect width="6" height="6"/></g>
<g transform="translate(388,612) scale(5.4933333333333)"><rect width="6" height="6"/></g>
<g transform="translate(420,612) scale(5.4933333333333)"><rect width="6" height="6"/></g>
<g transform="translate(452,612) scale(5.4933333333333)"><rect width="6" height="6"/></g>
<g transform="translate(484,612) scale(5.4933333333333)"><rect width="6" height="6"/></g>
<g transform="translate(516,612) scale(5.4933333333333)"><rect width="6" height="6"/></g>
<g transform="translate(548,612) scale(5.4933333333333)"><rect width="6" height="6"/></g>
<g transform="translate(612,612) scale(5.4933333333333)"><rect width="6" height="6"/></g>
<g transform="translate(644,612) scale(5.4933333333333)"><rect width="6" height="6"/></g>
<g transform="translate(676,612) scale(5.4933333333333)"><rect width="6" height="6"/></g>
<g transform="translate(708,612) scale(5.4933333333333)"><rect width="6" height="6"/></g>
<g transform="translate(740,612) scale(5.4933333333333)"><rect width="6" height="6"/></g>
<g transform="translate(836,612) scale(5.4933333333333)"><rect width="6" height="6"/></g>
<g transform="translate(868,612) scale(5.4933333333333)"><rect width="6" height="6"/></g>
<g transform="translate(356,644) scale(5.4933333333333)"><rect width="6" height="6"/></g>
<g transform="translate(388,644) scale(5.4933333333333)"><rect width="6" height="6"/></g>
<g transform="translate(420,644) scale(5.4933333333333)"><rect width="6" height="6"/></g>
<g transform="translate(452,644) scale(5.4933333333333)"><rect width="6" height="6"/></g>
<g transform="translate(484,644) scale(5.4933333333333)"><rect width="6" height="6"/></g>
<g transform="translate(516,644) scale(5.4933333333333)"><rect width="6" height="6"/></g>
<g transform="translate(548,644) scale(5.4933333333333)"><rect width="6" height="6"/></g>
<g transform="translate(580,644) scale(5.4933333333333)"><rect width="6" height="6"/></g>
<g transform="translate(612,644) scale(5.4933333333333)"><rect width="6" height="6"/></g>
<g transform="translate(740,644) scale(5.4933333333333)"><rect width="6" height="6"/></g>
<g transform="translate(836,644) scale(5.4933333333333)"><rect width="6" height="6"/></g>
<g transform="translate(580,676) scale(5.4933333333333)"><rect width="6" height="6"/></g>
<g transform="translate(612,676) scale(5.4933333333333)"><rect width="6" height="6"/></g>
<g transform="translate(676,676) scale(5.4933333333333)"><rect width="6" height="6"/></g>
<g transform="translate(740,676) scale(5.4933333333333)"><rect width="6" height="6"/></g>
<g transform="translate(804,676) scale(5.4933333333333)"><rect width="6" height="6"/></g>
<g transform="translate(836,676) scale(5.4933333333333)"><rect width="6" height="6"/></g>
<g transform="translate(868,676) scale(5.4933333333333)"><rect width="6" height="6"/></g>
<g transform="translate(484,708) scale(5.4933333333333)"><rect width="6" height="6"/></g>
<g transform="translate(580,708) scale(5.4933333333333)"><rect width="6" height="6"/></g>
<g transform="translate(612,708) scale(5.4933333333333)"><rect width="6" height="6"/></g>
<g transform="translate(740,708) scale(5.4933333333333)"><rect width="6" height="6"/></g>
<g transform="translate(804,708) scale(5.4933333333333)"><rect width="6" height="6"/></g>
<g transform="translate(836,708) scale(5.4933333333333)"><rect width="6" height="6"/></g>
<g transform="translate(356,740) scale(5.4933333333333)"><rect width="6" height="6"/></g>
<g transform="translate(420,740) scale(5.4933333333333)"><rect width="6" height="6"/></g>
<g transform="translate(452,740) scale(5.4933333333333)"><rect width="6" height="6"/></g>
<g transform="translate(548,740) scale(5.4933333333333)"><rect width="6" height="6"/></g>
<g transform="translate(580,740) scale(5.4933333333333)"><rect width="6" height="6"/></g>
<g transform="translate(612,740) scale(5.4933333333333)"><rect width="6" height="6"/></g>
<g transform="translate(644,740) scale(5.4933333333333)"><rect width="6" height="6"/></g>
<g transform="translate(676,740) scale(5.4933333333333)"><rect width="6" height="6"/></g>
<g transform="translate(708,740) scale(5.4933333333333)"><rect width="6" height="6"/></g>
<g transform="translate(740,740) scale(5.4933333333333)"><rect width="6" height="6"/></g>
<g transform="translate(772,740) scale(5.4933333333333)"><rect width="6" height="6"/></g>
<g transform="translate(804,740) scale(5.4933333333333)"><rect width="6" height="6"/></g>
<g transform="translate(868,740) scale(5.4933333333333)"><rect width="6" height="6"/></g>
<g transform="translate(356,772) scale(5.4933333333333)"><rect width="6" height="6"/></g>
<g transform="translate(388,772) scale(5.4933333333333)"><rect width="6" height="6"/></g>
<g transform="translate(420,772) scale(5.4933333333333)"><rect width="6" height="6"/></g>
<g transform="translate(484,772) scale(5.4933333333333)"><rect width="6" height="6"/></g>
<g transform="translate(580,772) scale(5.4933333333333)"><rect width="6" height="6"/></g>
<g transform="translate(644,772) scale(5.4933333333333)"><rect width="6" height="6"/></g>
<g transform="translate(708,772) scale(5.4933333333333)"><rect width="6" height="6"/></g>
<g transform="translate(740,772) scale(5.4933333333333)"><rect width="6" height="6"/></g>
<g transform="translate(868,772) scale(5.4933333333333)"><rect width="6" height="6"/></g>
<g transform="translate(356,804) scale(5.4933333333333)"><rect width="6" height="6"/></g>
<g transform="translate(388,804) scale(5.4933333333333)"><rect width="6" height="6"/></g>
<g transform="translate(452,804) scale(5.4933333333333)"><rect width="6" height="6"/></g>
<g transform="translate(516,804) scale(5.4933333333333)"><rect width="6" height="6"/></g>
<g transform="translate(548,804) scale(5.4933333333333)"><rect width="6" height="6"/></g>
<g transform="translate(580,804) scale(5.4933333333333)"><rect width="6" height="6"/></g>
<g transform="translate(772,804) scale(5.4933333333333)"><rect width="6" height="6"/></g>
<g transform="translate(868,804) scale(5.4933333333333)"><rect width="6" height="6"/></g>
<g transform="translate(388,836) scale(5.4933333333333)"><rect width="6" height="6"/></g>
<g transform="translate(452,836) scale(5.4933333333333)"><rect width="6" height="6"/></g>
<g transform="translate(548,836) scale(5.4933333333333)"><rect width="6" height="6"/></g>
<g transform="translate(580,836) scale(5.4933333333333)"><rect width="6" height="6"/></g>
<g transform="translate(644,836) scale(5.4933333333333)"><rect width="6" height="6"/></g>
<g transform="translate(676,836) scale(5.4933333333333)"><rect width="6" height="6"/></g>
<g transform="translate(772,836) scale(5.4933333333333)"><rect width="6" height="6"/></g>
<g transform="translate(868,836) scale(5.4933333333333)"><rect width="6" height="6"/></g>
<g transform="translate(388,868) scale(5.4933333333333)"><rect width="6" height="6"/></g>
<g transform="translate(484,868) scale(5.4933333333333)"><rect width="6" height="6"/></g>
<g transform="translate(516,868) scale(5.4933333333333)"><rect width="6" height="6"/></g>
<g transform="translate(548,868) scale(5.4933333333333)"><rect width="6" height="6"/></g>
<g transform="translate(836,868) scale(5.4933333333333)"><rect width="6" height="6"/></g>
<g transform="translate(868,868) scale(5.4933333333333)"><rect width="6" height="6"/></g>
</g><g fill="#000000" transform="scale(41.666666666667)"><path d="M1.3,24l21.3,0c0.7,0,1.3-0.6,1.3-1.3l0-21.3C24,0.6,23.4,0,22.7,0L1.3,0C0.6,0,0,0.6,0,1.3l0,21.3 C0,23.4,0.6,24,1.3,24z M1,2c0-0.6,0.5-1,1-1l20,0c0.6,0,1,0.5,1,1v20c0,0.6-0.5,1-1,1L2,23c-0.6,0-1-0.5-1-1V2z"/><path d="M1,30h22c0.5,0,1-0.4,1-1v-3c0-0.5-0.4-1-1-1H13l-1-1l-1,1H1c-0.5,0-1,0.4-1,1v3C0,29.6,0.4,30,1,30z"/></g>
<g><g transform="translate(100,100)"  fill="#000000"><g transform="scale(16)"><path d="M0,0v14h14V0H0z M12,12H2V2h10V12z"/></g></g>
<g transform="translate(676,100)"  fill="#000000"><g transform="scale(16)"><path d="M0,0v14h14V0H0z M12,12H2V2h10V12z"/></g></g>
<g transform="translate(100,676)"  fill="#000000"><g transform="scale(16)"><path d="M0,0v14h14V0H0z M12,12H2V2h10V12z"/></g></g>
<g transform="translate(164,164)"  fill="#000000"><g transform="scale(16)"><rect width="6" height="6"/></g></g>
<g transform="translate(740,164)"  fill="#000000"><g transform="scale(16)"><rect width="6" height="6"/></g></g>
<g transform="translate(164,740)"  fill="#000000"><g transform="scale(16)"><rect width="6" height="6"/></g></g></g>
<text fill="#FFFFFF" font-family="Arial, Helvetica, sans-serif" font-size="125px" text-anchor="middle" x="525.625" y="152.24358974359" transform="translate(0,1041.6666666667)">Call us</text></svg>