<svg xmlns="http://www.w3.org/2000/svg" xml:space="preserve" xmlns:xlink="http://www.w3.org/1999/xlink" style="max-width: 100%;height: auto;" width="1076.25" height="1345.3125" viewBox="0 0 1076.25 1345.3125">
<rect width="996.428125" height="996.428125" fill="#ffffff" x="44.84375" y="44.84375" />
<g transform="scale(44.84375)" fill="#000000"><path d="M1.3,24l21.3,0c0.7,0,1.3-0.6,1.3-1.3l0-21.3C24,0.6,23.4,0,22.7,0L1.3,0C0.6,0,0,0.6,0,1.3l0,21.3 C0,23.4,0.6,24,1.3,24z M1,2c0-0.6,0.5-1,1-1l20,0c0.6,0,1,0.5,1,1v20c0,0.6-0.5,1-1,1L2,23c-0.6,0-1-0.5-1-1V2z"/><path d="M1,30h22c0.5,0,1-0.4,1-1v-3c0-0.5-0.4-1-1-1H13l-1-1l-1,1H1c-0.5,0-1,0.4-1,1v3C0,29.6,0.4,30,1,30z"/></g>
<g fill="#000000">
<g transform="translate(275.625,107.625) scale(3.605)"><rect width="6" height="6"/></g>
<g transform="translate(296.625,107.625) scale(3.605)"><rect width="6" height="6"/></g>
<g transform="translate(380.625,107.625) scale(3.605)"><rect width="6" height="6"/></g>
<g transform="translate(401.625,107.625) scale(3.605)"><rect width="6" height="6"/></g>
<g transform="translate(443.625,107.625) scale(3.605)"><rect width="6" height="6"/></g>
<g transform="translate(590.625,107.625) scale(3.605)"><rect width="6" height="6"/></g>
<g transform="translate(611.625,107.625) scale(3.605)"><rect width="6" height="6"/></g>
<g transform="translate(674.625,107.625) scale(3.605)"><rect width="6" height="6"/></g>
<g transform="translate(695.625,107.625) scale(3.605)"><rect width="6" height="6"/></g>
<g transform="translate(716.625,107.625) scale(3.605)"><rect width="6" height="6"/></g>
<g transform="translate(737.625,107.625) scale(3.605)"><rect width="6" height="6"/></g>
<g transform="translate(758.625,107.625) scale(3.605)"><rect width="6" height="6"/></g>
<g transform="translate(275.625,128.625) scale(3.605)"><rect width="6" height="6"/></g>
<g transform="translate(338.625,128.625) scale(3.605)"><rect width="6" height="6"/></g>
<g transform="translate(359.625,128.625) scale(3.605)"><rect width="6" height="6"/></g>
<g transform="translate(401.625,128.625) scale(3.605)"><rect width="6" height="6"/></g>
<g transform="translate(422.625,128.625) scale(3.605)"><rect width="6" height="6"/></g>
<g transform="translate(443.625,128.625) scale(3.605)"><rect width="6" height="6"/></g>
<g transform="translate(464.625,128.625) scale(3.605)"><rect width="6" height="6"/></g>
<g transform="translate(527.625,128.625) scale(3.605)"><rect width="6" height="6"/></g>
<g transform="translate(548.625,128.625) scale(3.605)"><rect width="6" height="6"/></g>
<g transform="translate(569.625,128.625) scale(3.605)"><rect width="6" height="6"/></g>
<g transform="translate(590.625,128.625) scale(3.605)"><rect width="6" height="6"/></g>
<g transform="translate(611.625,128.625) scale(3.605)"><rect width="6" height="6"/></g>
<g transform="translate(674.625,128.625) scale(3.605)"><rect width="6" height="6"/></g>
<g transform="translate(716.625,128.625) scale(3.605)"><rect width="6" height="6"/></g>
<g transform="translate(275.625,149.625) scale(3.605)"><rect width="6" height="6"/></g>
<g transform="translate(296.625,149.625) scale(3.605)"><rect width="6" height="6"/></g>
<g transform="translate(317.625,149.625) scale(3.605)"><rect width="6" height="6"/></g>
<g transform="translate(338.625,149.625) scale(3.605)"><rect width="6" height="6"/></g>
<g transform="translate(359.625,149.625) scale(3.605)"><rect width="6" height="6"/></g>
<g transform="translate(380.625,149.625) scale(3.605)"><rect width="6" height="6"/></g>
<g transform="translate(443.625,149.625) scale(3.605)"><rect width="6" height="6"/></g>
<g transform="translate(485.625,149.625) scale(3.605)"><rect width="6" height="6"/></g>
<g transform="translate(527.625,149.625) scale(3.605)"><rect width="6" height="6"/></g>
<g transform="translate(548.625,149.625) scale(3.605)"><rect width="6" height="6"/></g>
<g transform="translate(590.625,149.625) scale(3.605)"><rect width="6" height="6"/></g>
<g transform="translate(653.625,149.625) scale(3.605)"><rect width="6" height="6"/></g>
<g transform="translate(674.625,149.625) scale(3.605)"><rect width="6" height="6"/></g>
<g transform="translate(695.625,149.625) scale(3.605)"><rect width="6" height="6"/></g>
<g transform="translate(716.625,149.625) scale(3.605)"><rect width="6" height="6"/></g>
<g transform="translate(737.625,149.625) scale(3.605)"><rect width="6" height="6"/></g>
<g transform="translate(779.625,149.625) scale(3.605)"><rect width="6" height="6"/></g>
<g transform="translate(317.625,170.625) scale(3.605)"><rect width="6" height="6"/></g>
<g transform="translate(338.625,170.625) scale(3.605)"><rect width="6" height="6"/></g>
<g transform="translate(359.625,170.625) scale(3.605)"><rect width="6" height="6"/></g>
<g transform="translate(401.625,170.625) scale(3.605)"><rect width="6" height="6"/></g>
<g transform="translate(485.625,170.625) scale(3.605)"><rect width="6" height="6"/></g>
<g transform="translate(506.625,170.625) scale(3.605)"><rect width="6" height="6"/></g>
<g transform="translate(569.625,170.625) scale(3.605)"><rect width="6" height="6"/></g>
<g transform="translate(590.625,170.625) scale(3.605)"><rect width="6" height="6"/></g>
<g transform="translate(611.625,170.625) scale(3.605)"><rect width="6" height="6"/></g>
<g transform="translate(674.625,170.625) scale(3.605)"><rect width="6" height="6"/></g>
<g transform="translate(695.625,170.625) scale(3.605)"><rect width="6" height="6"/></g>
<g transform="translate(296.625,191.625) scale(3.605)"><rect width="6" height="6"/></g>
<g transform="translate(317.625,191.625) scale(3.605)"><rect width="6" height="6"/></g>
<g transform="translate(359.625,191.625) scale(3.605)"><rect width="6" height="6"/></g>
<g transform="translate(380.625,191.625) scale(3.605)"><rect width="6" height="6"/></g>
<g transform="translate(422.625,191.625) scale(3.605)"><rect width="6" height="6"/></g>
<g transform="translate(443.625,191.625) scale(3.605)"><rect width="6" height="6"/></g>
<g transform="translate(464.625,191.625) scale(3.605)"><rect width="6" height="6"/></g>
<g transform="translate(485.625,191.625) scale(3.605)"><rect width="6" height="6"/></g>
<g transform="translate(506.625,191.625) scale(3.605)"><rect width="6" height="6"/></g>
<g transform="translate(548.625,191.625) scale(3.605)"><rect width="6" height="6"/></g>
<g transform="translate(590.625,191.625) scale(3.605)"><rect width="6" height="6"/></g>
<g transform="translate(611.625,191.625) scale(3.605)"><rect width="6" height="6"/></g>
<g transform="translate(632.625,191.625) scale(3.605)"><rect width="6" height="6"/></g>
<g transform="translate(653.625,191.625) scale(3.605)"><rect width="6" height="6"/></g>
<g transform="translate(674.625,191.625) scale(3.605)"><rect width="6" height="6"/></g>
<g transform="translate(737.625,191.625) scale(3.605)"><rect width="6" height="6"/></g>
<g transform="translate(758.625,191.625) scale(3.605)"><rect width="6" height="6"/></g>
<g transform="translate(779.625,191.625) scale(3.605)"><rect width="6" height="6"/></g>
<g transform="translate(275.625,212.625) scale(3.605)"><rect width="6" height="6"/></g>
<g transform="translate(317.625,212.625) scale(3.605)"><rect width="6" height="6"/></g>
<g transform="translate(359.625,212.625) scale(3.605)"><rect width="6" height="6"/></g>
<g transform="translate(464.625,212.625) scale(3.605)"><rect width="6" height="6"/></g>
<g transform="translate(485.625,212.625) scale(3.605)"><rect width="6" height="6"/></g>
<g transform="translate(527.625,212.625) scale(3.605)"><rect width="6" height="6"/></g>
<g transform="translate(569.625,212.625) scale(3.605)"><rect width="6" height="6"/></g>
<g transform="translate(590.625,212.625) scale(3.605)"><rect width="6" height="6"/></g>
<g transform="translate(632.625,212.625) scale(3.605)"><rect width="6" height="6"/></g>
<g transform="translate(653.625,212.625) scale(3.605)"><rect width="6" height="6"/></g>
<g transform="translate(674.625,212.625) scale(3.605)"><rect width="6" height="6"/></g>
<g transform="translate(716.625,212.625) scale(3.605)"><rect width="6" height="6"/></g>
<g transform="translate(275.625,233.625) scale(3.605)"><rect width="6" height="6"/></g>
<g transform="translate(317.625,233.625) scale(3.605)"><rect width="6" height="6"/></g>
<g transform="translate(359.625,233.625) scale(3.605)"><rect width="6" height="6"/></g>
<g transform="translate(401.625,233.625) scale(3.605)"><rect width="6" height="6"/></g>
<g transform="translate(443.625,233.625) scale(3.605)"><rect width="6" height="6"/></g>
<g transform="translate(485.625,233.625) scale(3.605)"><rect width="6" height="6"/></g>
<g transform="translate(527.625,233.625) scale(3.605)"><rect width="6" height="6"/></g>
<g transform="translate(569.625,233.625) scale(3.605)"><rect width="6" height="6"/></g>
<g transform="translate(611.625,233.625) scale(3.605)"><rect width="6" height="6"/></g>
<g transform="translate(653.625,233.625) scale(3.605)"><rect width="6" height="6"/></g>
<g transform="translate(695.625,233.625) scale(3.605)"><rect width="6" height="6"/></g>
<g transform="translate(737.625,233.625) scale(3.605)"><rect width="6" height="6"/></g>
<g transform="translate(779.625,233.625) scale(3.605)"><rect width="6" height="6"/></g>
<g transform="translate(275.625,254.625) scale(3.605)"><rect width="6" height="6"/></g>
<g transform="translate(317.625,254.625) scale(3.605)"><rect width="6" height="6"/></g>
<g transform="translate(380.625,254.625) scale(3.605)"><rect width="6" height="6"/></g>
<g transform="translate(464.625,254.625) scale(3.605)"><rect width="6" height="6"/></g>
<g transform="translate(506.625,254.625) scale(3.605)"><rect width="6" height="6"/></g>
<g transform="translate(548.625,254.625) scale(3.605)"><rect width="6" height="6"/></g>
<g transform="translate(632.625,254.625) scale(3.605)"><rect width="6" height="6"/></g>
<g transform="translate(653.625,254.625) scale(3.605)"><rect width="6" height="6"/></g>
<g transform="translate(695.625,254.625) scale(3.605)"><rect width="6" height="6"/></g>
<g transform="translate(716.625,254.625) scale(3.605)"><rect width="6" height="6"/></g>
<g transform="translate(758.625,254.625) scale(3.605)"><rect width="6" height="6"/></g>
<g transform="translate(779.625,254.625) scale(3.605)"><rect width="6" height="6"/></g>
<g transform="translate(149.625,275.625) scale(3.605)"><rect width="6" height="6"/></g>
<g transform="translate(170.625,275.625) scale(3.605)"><rect width="6" height="6"/></g>
<g transform="translate(191.625,275.625) scale(3.605)"><rect width="6" height="6"/></g>
<g transform="translate(233.625,275.625) scale(3.605)"><rect width="6" height="6"/></g>
<g transform="translate(275.625,275.625) scale(3.605)"><rect width="6" height="6"/></g>
<g transform="translate(317.625,275.625) scale(3.605)"><rect width="6" height="6"/></g>
<g transform="translate(338.625,275.625) scale(3.605)"><rect width="6" height="6"/></g>
<g transform="translate(380.625,275.625) scale(3.605)"><rect width="6" height="6"/></g>
<g transform="translate(401.625,275.625) scale(3.605)"><rect width="6" height="6"/></g>
<g transform="translate(443.625,275.625) scale(3.605)"><rect width="6" height="6"/></g>
<g transform="translate(569.625,275.625) scale(3.605)"><rect width="6" height="6"/></g>
<g transform="translate(590.625,275.625) scale(3.605)"><rect width="6" height="6"/></g>
<g transform="translate(611.625,275.625) scale(3.605)"><rect width="6" height="6"/></g>
<g transform="translate(674.625,275.625) scale(3.605)"><rect width="6" height="6"/></g>
<g transform="translate(695.625,275.625) scale(3.605)"><rect width="6" height="6"/></g>
<g transform="translate(737.625,275.625) scale(3.605)"><rect width="6" height="6"/></g>
<g transform="translate(779.625,275.625) scale(3.605)"><rect width="6" height="6"/></g>
<g transform="translate(800.625,275.625) scale(3.605)"><rect width="6" height="6"/></g>
<g transform="translate(821.625,275.625) scale(3.605)"><rect width="6" height="6"/></g>
<g transform="translate(842.625,275.625) scale(3.605)"><rect width="6" height="6"/></g>
<g transform="translate(905.625,275.625) scale(3.605)"><rect width="6" height="6"/></g>
<g transform="translate(926.625,275.625) scale(3.605)"><rect width="6" height="6"/></g>
<g transform="translate(947.625,275.625) scale(3.605)"><rect width="6" height="6"/></g>
<g transform="translate(128.625,296.625) scale(3.605)"><rect width="6" height="6"/></g>
<g transform="translate(149.625,296.625) scale(3.605)"><rect width="6" height="6"/></g>
<g transform="translate(170.625,296.625) scale(3.605)"><rect width="6" height="6"/></g>
<g transform="translate(212.625,296.625) scale(3.605)"><rect width="6" height="6"/></g>
<g transform="translate(275.625,296.625) scale(3.605)"><rect width="6" height="6"/></g>
<g transform="translate(296.625,296.625) scale(3.605)"><rect width="6" height="6"/></g>
<g transform="translate(338.625,296.625) scale(3.605)"><rect width="6" height="6"/></g>
<g transform="translate(359.625,296.625) scale(3.605)"><rect width="6" height="6"/></g>
<g transform="translate(380.625,296.625) scale(3.605)"><rect width="6" height="6"/></g>
<g transform="translate(422.625,296.625) scale(3.605)"><rect width="6" height="6"/></g>
<g transform="translate(506.625,296.625) scale(3.605)"><rect width="6" height="6"/></g>
<g transform="translate(527.625,296.625) scale(3.605)"><rect width="6" height="6"/></g>
<g transform="translate(569.625,296.625) scale(3.605)"><rect width="6" height="6"/></g>
<g transform="translate(653.625,296.625) scale(3.605)"><rect width="6" height="6"/></g>
<g transform="translate(674.625,296.625) scale(3.605)"><rect width="6" height="6"/></g>
<g transform="translate(758.625,296.625) scale(3.605)"><rect width="6" height="6"/></g>
<g transform="translate(779.625,296.625) scale(3.605)"><rect width="6" height="6"/></g>
<g transform="translate(842.625,296.625) scale(3.605)"><rect width="6" height="6"/></g>
<g transform="translate(884.625,296.625) scale(3.605)"><rect width="6" height="6"/></g>
<g transform="translate(905.625,296.625) scale(3.605)"><rect width="6" height="6"/></g>
<g transform="translate(926.625,296.625) scale(3.605)"><rect width="6" height="6"/></g>
<g transform="translate(947.625,296.625) scale(3.605)"><rect width="6" height="6"/></g>
<g transform="translate(107.625,317.625) scale(3.605)"><rect width="6" height="6"/></g>
<g transform="translate(128.625,317.625) scale(3.605)"><rect width="6" height="6"/></g>
<g transform="translate(170.625,317.625) scale(3.605)"><rect width="6" height="6"/></g>
<g transform="translate(191.625,317.625) scale(3.605)"><rect width="6" height="6"/></g>
<g transform="translate(212.625,317.625) scale(3.605)"><rect width="6" height="6"/></g>
<g transform="translate(233.625,317.625) scale(3.605)"><rect width="6" height="6"/></g>
<g transform="translate(254.625,317.625) scale(3.605)"><rect width="6" height="6"/></g>
<g transform="translate(296.625,317.625) scale(3.605)"><rect width="6" height="6"/></g>
<g transform="translate(317.625,317.625) scale(3.605)"><rect width="6" height="6"/></g>
<g transform="translate(380.625,317.625) scale(3.605)"><rect width="6" height="6"/></g>
<g transform="translate(401.625,317.625) scale(3.605)"><rect width="6" height="6"/></g>
<g transform="translate(422.625,317.625) scale(3.605)"><rect width="6" height="6"/></g>
<g transform="translate(443.625,317.625) scale(3.605)"><rect width="6" height="6"/></g>
<g transform="translate(485.625,317.625) scale(3.605)"><rect width="6" height="6"/></g>
<g transform="translate(506.625,317.625) scale(3.605)"><rect width="6" height="6"/></g>
<g transform="translate(548.625,317.625) scale(3.605)"><rect width="6" height="6"/></g>
<g transform="translate(569.625,317.625) scale(3.605)"><rect width="6" height="6"/></g>
<g transform="translate(590.625,317.625) scale(3.605)"><rect width="6" height="6"/></g>
<g transform="translate(611.625,317.625) scale(3.605)"><rect width="6" height="6"/></g>
<g transform="translate(653.625,317.625) scale(3.605)"><rect width="6" height="6"/></g>
<g transform="translate(716.625,317.625) scale(3.605)"><rect width="6" height="6"/></g>
<g transform="translate(821.625,317.625) scale(3.605)"><rect width="6" height="6"/></g>
<g transform="translate(905.625,317.625) scale(3.605)"><rect width="6" height="6"/></g>
<g transform="translate(926.625,317.625) scale(3.605)"><rect width="6" height="6"/></g>
<g transform="translate(947.625,317.625) scale(3.605)"><rect width="6" height="6"/></g>
<g transform="translate(107.625,338.625) scale(3.605)"><rect width="6" height="6"/></g>
<g transform="translate(128.625,338.625) scale(3.605)"><rect width="6" height="6"/></g>
<g transform="translate(191.625,338.625) scale(3.605)"><rect width="6" height="6"/></g>
<g transform="translate(212.625,338.625) scale(3.605)"><rect width="6" height="6"/></g>
<g transform="translate(275.625,338.625) scale(3.605)"><rect width="6" height="6"/></g>
<g transform="translate(317.625,338.625) scale(3.605)"><rect width="6" height="6"/></g>
<g transform="translate(338.625,338.625) scale(3.605)"><rect width="6" height="6"/></g>
<g transform="translate(380.625,338.625) scale(3.605)"><rect width="6" height="6"/></g>
<g transform="translate(422.625,338.625) scale(3.605)"><rect width="6" height="6"/></g>
<g transform="translate(443.625,338.625) scale(3.605)"><rect width="6" height="6"/></g>
<g transform="translate(485.625,338.625) scale(3.605)"><rect width="6" height="6"/></g>
<g transform="translate(527.625,338.625) scale(3.605)"><rect width="6" height="6"/></g>
<g transform="translate(569.625,338.625) scale(3.605)"><rect width="6" height="6"/></g>
<g transform="translate(611.625,338.625) scale(3.605)"><rect width="6" height="6"/></g>
<g transform="translate(632.625,338.625) scale(3.605)"><rect width="6" height="6"/></g>
<g transform="translate(653.625,338.625) scale(3.605)"><rect width="6" height="6"/></g>
<g transform="translate(695.625,338.625) scale(3.605)"><rect width="6" height="6"/></g>
<g transform="translate(737.625,338.625) scale(3.605)"><rect width="6" height="6"/></g>
<g transform="translate(758.625,338.625) scale(3.605)"><rect width="6" height="6"/></g>
<g transform="translate(800.625,338.625) scale(3.605)"><rect width="6" height="6"/></g>
<g transform="translate(821.625,338.625) scale(3.605)"><rect width="6" height="6"/></g>
<g transform="translate(842.625,338.625) scale(3.605)"><rect width="6" height="6"/></g>
<g transform="translate(863.625,338.625) scale(3.605)"><rect width="6" height="6"/></g>
<g transform="translate(905.625,338.625) scale(3.605)"><rect width="6" height="6"/></g>
<g transform="translate(947.625,338.625) scale(3.605)"><rect width="6" height="6"/></g>
<g transform="translate(149.625,359.625) scale(3.605)"><rect width="6" height="6"/></g>
<g transform="translate(170.625,359.625) scale(3.605)"><rect width="6" height="6"/></g>
<g transform="translate(212.625,359.625) scale(3.605)"><rect width="6" height="6"/></g>
<g transform="translate(233.625,359.625) scale(3.605)"><rect width="6" height="6"/></g>
<g transform="translate(254.625,359.625) scale(3.605)"><rect width="6" height="6"/></g>
<g transform="translate(296.625,359.625) scale(3.605)"><rect width="6" height="6"/></g>
<g transform="translate(338.625,359.625) scale(3.605)"><rect width="6" height="6"/></g>
<g transform="translate(380.625,359.625) scale(3.605)"><rect width="6" height="6"/></g>
<g transform="translate(401.625,359.625) scale(3.605)"><rect width="6" height="6"/></g>
<g transform="translate(422.625,359.625) scale(3.605)"><rect width="6" height="6"/></g>
<g transform="translate(443.625,359.625) scale(3.605)"><rect width="6" height="6"/></g>
<g transform="translate(485.625,359.625) scale(3.605)"><rect width="6" height="6"/></g>
<g transform="translate(548.625,359.625) scale(3.605)"><rect width="6" height="6"/></g>
<g transform="translate(569.625,359.625) scale(3.605)"><rect width="6" height="6"/></g>
<g transform="translate(611.625,359.625) scale(3.605)"><rect width="6" height="6"/></g>
<g transform="translate(632.625,359.625) scale(3.605)"><rect width="6" height="6"/></g>
<g transform="translate(674.625,359.625) scale(3.605)"><rect width="6" height="6"/></g>
<g transform="translate(737.625,359.625) scale(3.605)"><rect width="6" height="6"/></g>
<g transform="translate(779.625,359.625) scale(3.605)"><rect width="6" height="6"/></g>
<g transform="translate(821.625,359.625) scale(3.605)"><rect width="6" height="6"/></g>
<g transform="translate(926.625,359.625) scale(3.605)"><rect width="6" height="6"/></g>
<g transform="translate(107.625,380.625) scale(3.605)"><rect width="6" height="6"/></g>
<g transform="translate(149.625,380.625) scale(3.605)"><rect width="6" height="6"/></g>
<g transform="translate(317.625,380.625) scale(3.605)"><rect width="6" height="6"/></g>
<g transform="translate(380.625,380.625) scale(3.605)"><rect width="6" height="6"/></g>
<g transform="translate(422.625,380.625) scale(3.605)"><rect width="6" height="6"/></g>
<g transform="translate(548.625,380.625) scale(3.605)"><rect width="6" height="6"/></g>
<g transform="translate(590.625,380.625) scale(3.605)"><rect width="6" height="6"/></g>
<g transform="translate(653.625,380.625) scale(3.605)"><rect width="6" height="6"/></g>
<g transform="translate(674.625,380.625) scale(3.605)"><rect width="6" height="6"/></g>
<g transform="translate(695.625,380.625) scale(3.605)"><rect width="6" height="6"/></g>
<g transform="translate(800.625,380.625) scale(3.605)"><rect width="6" height="6"/></g>
<g transform="translate(842.625,380.625) scale(3.605)"><rect width="6" height="6"/></g>
<g transform="translate(884.625,380.625) scale(3.605)"><rect width="6" height="6"/></g>
<g transform="translate(926.625,380.625) scale(3.605)"><rect width="6" height="6"/></g>
<g transform="translate(107.625,401.625) scale(3.605)"><rect width="6" height="6"/></g>
<g transform="translate(149.625,401.625) scale(3.605)"><rect width="6" height="6"/></g>
<g transform="translate(170.625,401.625) scale(3.605)"><rect width="6" height="6"/></g>
<g transform="translate(191.625,401.625) scale(3.605)"><rect width="6" height="6"/></g>
<g transform="translate(212.625,401.625) scale(3.605)"><rect width="6" height="6"/></g>
<g transform="translate(233.625,401.625) scale(3.605)"><rect width="6" height="6"/></g>
<g transform="translate(254.625,401.625) scale(3.605)"><rect width="6" height="6"/></g>
<g transform="translate(338.625,401.625) scale(3.605)"><rect width="6" height="6"/></g>
<g transform="translate(401.625,401.625) scale(3.605)"><rect width="6" height="6"/></g>
<g transform="translate(443.625,401.625) scale(3.605)"><rect width="6" height="6"/></g>
<g transform="translate(464.625,401.625) scale(3.605)"><rect width="6" height="6"/></g>
<g transform="translate(527.625,401.625) scale(3.605)"><rect width="6" height="6"/></g>
<g transform="translate(611.625,401.625) scale(3.605)"><rect width="6" height="6"/></g>
<g transform="translate(632.625,401.625) scale(3.605)"><rect width="6" height="6"/></g>
<g transform="translate(653.625,401.625) scale(3.605)"><rect width="6" height="6"/></g>
<g transform="translate(716.625,401.625) scale(3.605)"><rect width="6" height="6"/></g>
<g transform="translate(737.625,401.625) scale(3.605)"><rect width="6" height="6"/></g>
<g transform="translate(779.625,401.625) scale(3.605)"><rect width="6" height="6"/></g>
<g transform="translate(821.625,401.625) scale(3.605)"><rect width="6" height="6"/></g>
<g transform="translate(905.625,401.625) scale(3.605)"><rect width="6" height="6"/></g>
<g transform="translate(947.625,401.625) scale(3.605)"><rect width="6" height="6"/></g>
<g transform="translate(107.625,422.625) scale(3.605)"><rect width="6" height="6"/></g>
<g transform="translate(128.625,422.625) scale(3.605)"><rect width="6" height="6"/></g>
<g transform="translate(149.625,422.625) scale(3.605)"><rect width="6" height="6"/></g>
<g transform="translate(212.625,422.625) scale(3.605)"><rect width="6" height="6"/></g>
<g transform="translate(254.625,422.625) scale(3.605)"><rect width="6" height="6"/></g>
<g transform="translate(275.625,422.625) scale(3.605)"><rect width="6" height="6"/></g>
<g transform="translate(296.625,422.625) scale(3.605)"><rect width="6" height="6"/></g>
<g transform="translate(317.625,422.625) scale(3.605)"><rect width="6" height="6"/></g>
<g transform="translate(338.625,422.625) scale(3.605)"><rect width="6" height="6"/></g>
<g transform="translate(359.625,422.625) scale(3.605)"><rect width="6" height="6"/></g>
<g transform="translate(380.625,422.625) scale(3.605)"><rect width="6" height="6"/></g>
<g transform="translate(401.625,422.625) scale(3.605)"><rect width="6" height="6"/></g>
<g transform="translate(422.625,422.625) scale(3.605)"><rect width="6" height="6"/></g>
<g transform="translate(464.625,422.625) scale(3.605)"><rect width="6" height="6"/></g>
<g transform="translate(485.625,422.625) scale(3.605)"><rect width="6" height="6"/></g>
<g transform="translate(527.625,422.625) scale(3.605)"><rect width="6" height="6"/></g>
<g transform="translate(548.625,422.625) scale(3.605)"><rect width="6" height="6"/></g>
<g transform="translate(695.625,422.625) scale(3.605)"><rect width="6" height="6"/></g>
<g transform="translate(716.625,422.625) scale(3.605)"><rect width="6" height="6"/></g>
<g transform="translate(800.625,422.625) scale(3.605)"><rect width="6" height="6"/></g>
<g transform="translate(821.625,422.625) scale(3.605)"><rect width="6" height="6"/></g>
<g transform="translate(863.625,422.625) scale(3.605)"><rect width="6" height="6"/></g>
<g transform="translate(884.625,422.625) scale(3.605)"><rect width="6" height="6"/></g>
<g transform="translate(905.625,422.625) scale(3.605)"><rect width="6" height="6"/></g>
<g transform="translate(926.625,422.625) scale(3.605)"><rect width="6" height="6"/></g>
<g transform="translate(947.625,422.625) scale(3.605)"><rect width="6" height="6"/></g>
<g transform="translate(128.625,443.625) scale(3.605)"><rect width="6" height="6"/></g>
<g transform="translate(149.625,443.625) scale(3.605)"><rect width="6" height="6"/></g>
<g transform="translate(233.625,443.625) scale(3.605)"><rect width="6" height="6"/></g>
<g transform="translate(296.625,443.625) scale(3.605)"><rect width="6" height="6"/></g>
<g transform="translate(317.625,443.625) scale(3.605)"><rect width="6" height="6"/></g>
<g transform="translate(338.625,443.625) scale(3.605)"><rect width="6" height="6"/></g>
<g transform="translate(359.625,443.625) scale(3.605)"><rect width="6" height="6"/></g>
<g transform="translate(401.625,443.625) scale(3.605)"><rect width="6" height="6"/></g>
<g transform="translate(464.625,443.625) scale(3.605)"><rect width="6" height="6"/></g>
<g transform="translate(485.625,443.625) scale(3.605)"><rect width="6" height="6"/></g>
<g transform="translate(506.625,443.625) scale(3.605)"><rect width="6" height="6"/></g>
<g transform="translate(548.625,443.625) scale(3.605)"><rect width="6" height="6"/></g>
<g transform="translate(569.625,443.625) scale(3.605)"><rect width="6" height="6"/></g>
<g transform="translate(590.625,443.625) scale(3.605)"><rect width="6" height="6"/></g>
<g transform="translate(653.625,443.625) scale(3.605)"><rect width="6" height="6"/></g>
<g transform="translate(695.625,443.625) scale(3.605)"><rect width="6" height="6"/></g>
<g transform="translate(716.625,443.625) scale(3.605)"><rect width="6" height="6"/></g>
<g transform="translate(737.625,443.625) scale(3.605)"><rect width="6" height="6"/></g>
<g transform="translate(779.625,443.625) scale(3.605)"><rect width="6" height="6"/></g>
<g transform="translate(821.625,443.625) scale(3.605)"><rect width="6" height="6"/></g>
<g transform="translate(842.625,443.625) scale(3.605)"><rect width="6" height="6"/></g>
<g transform="translate(905.625,443.625) scale(3.605)"><rect width="6" height="6"/></g>
<g transform="translate(128.625,464.625) scale(3.605)"><rect width="6" height="6"/></g>
<g transform="translate(149.625,464.625) scale(3.605)"><rect width="6" height="6"/></g>
<g transform="translate(170.625,464.625) scale(3.605)"><rect width="6" height="6"/></g>
<g transform="translate(212.625,464.625) scale(3.605)"><rect width="6" height="6"/></g>
<g transform="translate(296.625,464.625) scale(3.605)"><rect width="6" height="6"/></g>
<g transform="translate(317.625,464.625) scale(3.605)"><rect width="6" height="6"/></g>
<g transform="translate(401.625,464.625) scale(3.605)"><rect width="6" height="6"/></g>
<g transform="translate(422.625,464.625) scale(3.605)"><rect width="6" height="6"/></g>
<g transform="translate(464.625,464.625) scale(3.605)"><rect width="6" height="6"/></g>
<g transform="translate(485.625,464.625) scale(3.605)"><rect width="6" height="6"/></g>
<g transform="translate(506.625,464.625) scale(3.605)"><rect width="6" height="6"/></g>
<g transform="translate(527.625,464.625) scale(3.605)"><rect width="6" height="6"/></g>
<g transform="translate(548.625,464.625) scale(3.605)"><rect width="6" height="6"/></g>
<g transform="translate(611.625,464.625) scale(3.605)"><rect width="6" height="6"/></g>
<g transform="translate(695.625,464.625) scale(3.605)"><rect width="6" height="6"/></g>
<g transform="translate(737.625,464.625) scale(3.605)"><rect width="6" height="6"/></g>
<g transform="translate(779.625,464.625) scale(3.605)"><rect width="6" height="6"/></g>
<g transform="translate(800.625,464.625) scale(3.605)"><rect width="6" height="6"/></g>
<g transform="translate(863.625,464.625) scale(3.605)"><rect width="6" height="6"/></g>
<g transform="translate(947.625,464.625) scale(3.605)"><rect width="6" height="6"/></g>
<g transform="translate(107.625,485.625) scale(3.605)"><rect width="6" height="6"/></g>
<g transform="translate(128.625,485.625) scale(3.605)"><rect width="6" height="6"/></g>
<g transform="translate(149.625,485.625) scale(3.605)"><rect width="6" height="6"/></g>
<g transform="translate(191.625,485.625) scale(3.605)"><rect width="6" height="6"/></g>
<g transform="translate(212.625,485.625) scale(3.605)"><rect width="6" height="6"/></g>
<g transform="translate(233.625,485.625) scale(3.605)"><rect width="6" height="6"/></g>
<g transform="translate(254.625,485.625) scale(3.605)"><rect width="6" height="6"/></g>
<g transform="translate(275.625,485.625) scale(3.605)"><rect width="6" height="6"/></g>
<g transform="translate(317.625,485.625) scale(3.605)"><rect width="6" height="6"/></g>
<g transform="translate(380.625,485.625) scale(3.605)"><rect width="6" height="6"/></g>
<g transform="translate(401.625,485.625) scale(3.605)"><rect width="6" height="6"/></g>
<g transform="translate(422.625,485.625) scale(3.605)"><rect width="6" height="6"/></g>
<g transform="translate(443.625,485.625) scale(3.605)"><rect width="6" height="6"/></g>
<g transform="translate(464.625,485.625) scale(3.605)"><rect width="6" height="6"/></g>
<g transform="translate(737.625,485.625) scale(3.605)"><rect width="6" height="6"/></g>
<g transform="translate(779.625,485.625) scale(3.605)"><rect width="6" height="6"/></g>
<g transform="translate(842.625,485.625) scale(3.605)"><rect width="6" height="6"/></g>
<g transform="translate(905.625,485.625) scale(3.605)"><rect width="6" height="6"/></g>
<g transform="translate(947.625,485.625) scale(3.605)"><rect width="6" height="6"/></g>
<g transform="translate(128.625,506.625) scale(3.605)"><rect width="6" height="6"/></g>
<g transform="translate(149.625,506.625) scale(3.605)"><rect width="6" height="6"/></g>
<g transform="translate(170.625,506.625) scale(3.605)"><rect width="6" height="6"/></g>
<g transform="translate(212.625,506.625) scale(3.605)"><rect width="6" height="6"/></g>
<g transform="translate(317.625,506.625) scale(3.605)"><rect width="6" height="6"/></g>
<g transform="translate(338.625,506.625) scale(3.605)"><rect width="6" height="6"/></g>
<g transform="translate(422.625,506.625) scale(3.605)"><rect width="6" height="6"/></g>
<g transform="translate(464.625,506.625) scale(3.605)"><rect width="6" height="6"/></g>
<g transform="translate(548.625,506.625) scale(3.605)"><rect width="6" height="6"/></g>
<g transform="translate(569.625,506.625) scale(3.605)"><rect width="6" height="6"/></g>
<g transform="translate(611.625,506.625) scale(3.605)"><rect width="6" height="6"/></g>
<g transform="translate(632.625,506.625) scale(3.605)"><rect width="6" height="6"/></g>
<g transform="translate(674.625,506.625) scale(3.605)"><rect width="6" height="6"/></g>
<g transform="translate(695.625,506.625) scale(3.605)"><rect width="6" height="6"/></g>
<g transform="translate(779.625,506.625) scale(3.605)"><rect width="6" height="6"/></g>
<g transform="translate(800.625,506.625) scale(3.605)"><rect width="6" height="6"/></g>
<g transform="translate(821.625,506.625) scale(3.605)"><rect width="6" height="6"/></g>
<g transform="translate(842.625,506.625) scale(3.605)"><rect width="6" height="6"/></g>
<g transform="translate(884.625,506.625) scale(3.605)"><rect width="6" height="6"/></g>
<g transform="translate(905.625,506.625) scale(3.605)"><rect width="6" height="6"/></g>
<g transform="translate(926.625,506.625) scale(3.605)"><rect width="6" height="6"/></g>
<g transform="translate(947.625,506.625) scale(3.605)"><rect width="6" height="6"/></g>
<g transform="translate(128.625,527.625) scale(3.605)"><rect width="6" height="6"/></g>
<g transform="translate(149.625,527.625) scale(3.605)"><rect width="6" height="6"/></g>
<g transform="translate(170.625,527.625) scale(3.605)"><rect width="6" height="6"/></g>
<g transform="translate(191.625,527.625) scale(3.605)"><rect width="6" height="6"/></g>
<g transform="translate(212.625,527.625) scale(3.605)"><rect width="6" height="6"/></g>
<g transform="translate(233.625,527.625) scale(3.605)"><rect width="6" height="6"/></g>
<g transform="translate(296.625,527.625) scale(3.605)"><rect width="6" height="6"/></g>
<g transform="translate(380.625,527.625) scale(3.605)"><rect width="6" height="6"/></g>
<g transform="translate(422.625,527.625) scale(3.605)"><rect width="6" height="6"/></g>
<g transform="translate(443.625,527.625) scale(3.605)"><rect width="6" height="6"/></g>
<g transform="translate(464.625,527.625) scale(3.605)"><rect width="6" height="6"/></g>
<g transform="translate(527.625,527.625) scale(3.605)"><rect width="6" height="6"/></g>
<g transform="translate(569.625,527.625) scale(3.605)"><rect width="6" height="6"/></g>
<g transform="translate(590.625,527.625) scale(3.605)"><rect width="6" height="6"/></g>
<g transform="translate(611.625,527.625) scale(3.605)"><rect width="6" height="6"/></g>
<g transform="translate(653.625,527.625) scale(3.605)"><rect width="6" height="6"/></g>
<g transform="translate(674.625,527.625) scale(3.605)"><rect width="6" height="6"/></g>
<g transform="translate(695.625,527.625) scale(3.605)"><rect width="6" height="6"/></g>
<g transform="translate(737.625,527.625) scale(3.605)"><rect width="6" height="6"/></g>
<g transform="translate(779.625,527.625) scale(3.605)"><rect width="6" height="6"/></g>
<g transform="translate(800.625,527.625) scale(3.605)"><rect width="6" height="6"/></g>
<g transform="translate(821.625,527.625) scale(3.605)"><rect width="6" height="6"/></g>
<g transform="translate(863.625,527.625) scale(3.605)"><rect width="6" height="6"/></g>
<g transform="translate(905.625,527.625) scale(3.605)"><rect width="6" height="6"/></g>
<g transform="translate(107.625,548.625) scale(3.605)"><rect width="6" height="6"/></g>
<g transform="translate(128.625,548.625) scale(3.605)"><rect width="6" height="6"/></g>
<g transform="translate(149.625,548.625) scale(3.605)"><rect width="6" height="6"/></g>
<g transform="translate(254.625,548.625) scale(3.605)"><rect width="6" height="6"/></g>
<g transform="translate(275.625,548.625) scale(3.605)"><rect width="6" height="6"/></g>
<g transform="translate(359.625,548.625) scale(3.605)"><rect width="6" height="6"/></g>
<g transform="translate(422.625,548.625) scale(3.605)"><rect width="6" height="6"/></g>
<g transform="translate(464.625,548.625) scale(3.605)"><rect width="6" height="6"/></g>
<g transform="translate(527.625,548.625) scale(3.605)"><rect width="6" height="6"/></g>
<g transform="translate(548.625,548.625) scale(3.605)"><rect width="6" height="6"/></g>
<g transform="translate(569.625,548.625) scale(3.605)"><rect width="6" height="6"/></g>
<g transform="translate(653.625,548.625) scale(3.605)"><rect width="6" height="6"/></g>
<g transform="translate(674.625,548.625) scale(3.605)"><rect width="6" height="6"/></g>
<g transform="translate(695.625,548.625) scale(3.605)"><rect width="6" height="6"/></g>
<g transform="translate(800.625,548.625) scale(3.605)"><rect width="6" height="6"/></g>
<g transform="translate(863.625,548.625) scale(3.605)"><rect width="6" height="6"/></g>
<g transform="translate(947.625,548.625) scale(3.605)"><rect width="6" height="6"/></g>
<g transform="translate(107.625,569.625) scale(3.605)"><rect width="6" height="6"/></g>
<g transform="translate(128.625,569.625) scale(3.605)"><rect width="6" height="6"/></g>
<g transform="translate(149.625,569.625) scale(3.605)"><rect width="6" height="6"/></g>
<g transform="translate(170.625,569.625) scale(3.605)"><rect width="6" height="6"/></g>
<g transform="translate(191.625,569.625) scale(3.605)"><rect width="6" height="6"/></g>
<g transform="translate(233.625,569.625) scale(3.605)"><rect width="6" height="6"/></g>
<g transform="translate(275.625,569.625) scale(3.605)"><rect width="6" height="6"/></g>
<g transform="translate(296.625,569.625) scale(3.605)"><rect width="6" height="6"/></g>
<g transform="translate(380.625,569.625) scale(3.605)"><rect width="6" height="6"/></g>
<g transform="translate(422.625,569.625) scale(3.605)"><rect width="6" height="6"/></g>
<g transform="translate(506.625,569.625) scale(3.605)"><rect width="6" height="6"/></g>
<g transform="translate(548.625,569.625) scale(3.605)"><rect width="6" height="6"/></g>
<g transform="translate(590.625,569.625) scale(3.605)"><rect width="6" height="6"/></g>
<g transform="translate(632.625,569.625) scale(3.605)"><rect width="6" height="6"/></g>
<g transform="translate(716.625,569.625) scale(3.605)"><rect width="6" height="6"/></g>
<g transform="translate(758.625,569.625) scale(3.605)"><rect width="6" height="6"/></g>
<g transform="translate(800.625,569.625) scale(3.605)"><rect width="6" height="6"/></g>
<g transform="translate(863.625,569.625) scale(3.605)"><rect width="6" height="6"/></g>
<g transform="translate(884.625,569.625) scale(3.605)"><rect width="6" height="6"/></g>
<g transform="translate(905.625,569.625) scale(3.605)"><rect width="6" height="6"/></g>
<g transform="translate(926.625,569.625) scale(3.605)"><rect width="6" height="6"/></g>
<g transform="translate(107.625,590.625) scale(3.605)"><rect width="6" height="6"/></g>
<g transform="translate(149.625,590.625) scale(3.605)"><rect width="6" height="6"/></g>
<g transform="translate(170.625,590.625) scale(3.605)"><rect width="6" height="6"/></g>
<g transform="translate(191.625,590.625) scale(3.605)"><rect width="6" height="6"/></g>
<g transform="translate(212.625,590.625) scale(3.605)"><rect width="6" height="6"/></g>
<g transform="translate(254.625,590.625) scale(3.605)"><rect width="6" height="6"/></g>
<g transform="translate(275.625,590.625) scale(3.605)"><rect width="6" height="6"/></g>
<g transform="translate(338.625,590.625) scale(3.605)"><rect width="6" height="6"/></g>
<g transform="translate(380.625,590.625) scale(3.605)"><rect width="6" height="6"/></g>
<g transform="translate(401.625,590.625) scale(3.605)"><rect width="6" height="6"/></g>
<g transform="translate(422.625,590.625) scale(3.605)"><rect width="6" height="6"/></g>
<g transform="translate(548.625,590.625) scale(3.605)"><rect width="6" height="6"/></g>
<g transform="translate(632.625,590.625) scale(3.605)"><rect width="6" height="6"/></g>
<g transform="translate(695.625,590.625) scale(3.605)"><rect width="6" height="6"/></g>
<g transform="translate(737.625,590.625) scale(3.605)"><rect width="6" height="6"/></g>
<g transform="translate(758.625,590.625) scale(3.605)"><rect width="6" height="6"/></g>
<g transform="translate(779.625,590.625) scale(3.605)"><rect width="6" height="6"/></g>
<g transform="translate(821.625,590.625) scale(3.605)"><rect width="6" height="6"/></g>
<g transform="translate(863.625,590.625) scale(3.605)"><rect width="6" height="6"/></g>
<g transform="translate(905.625,590.625) scale(3.605)"><rect width="6" height="6"/></g>
<g transform="translate(191.625,611.625) scale(3.605)"><rect width="6" height="6"/></g>
<g transform="translate(233.625,611.625) scale(3.605)"><rect width="6" height="6"/></g>
<g transform="translate(254.625,611.625) scale(3.605)"><rect width="6" height="6"/></g>
<g transform="translate(275.625,611.625) scale(3.605)"><rect width="6" height="6"/></g>
<g transform="translate(296.625,611.625) scale(3.605)"><rect width="6" height="6"/></g>
<g transform="translate(338.625,611.625) scale(3.605)"><rect width="6" height="6"/></g>
<g transform="translate(422.625,611.625) scale(3.605)"><rect width="6" height="6"/></g>
<g transform="translate(443.625,611.625) scale(3.605)"><rect width="6" height="6"/></g>
<g transform="translate(464.625,611.625) scale(3.605)"><rect width="6" height="6"/></g>
<g transform="translate(548.625,611.625) scale(3.605)"><rect width="6" height="6"/></g>
<g transform="translate(632.625,611.625) scale(3.605)"><rect width="6" height="6"/></g>
<g transform="translate(653.625,611.625) scale(3.605)"><rect width="6" height="6"/></g>
<g transform="translate(674.625,611.625) scale(3.605)"><rect width="6" height="6"/></g>
<g transform="translate(737.625,611.625) scale(3.605)"><rect width="6" height="6"/></g>
<g transform="translate(800.625,611.625) scale(3.605)"><rect width="6" height="6"/></g>
<g transform="translate(821.625,611.625) scale(3.605)"><rect width="6" height="6"/></g>
<g transform="translate(842.625,611.625) scale(3.605)"><rect width="6" height="6"/></g>
<g transform="translate(884.625,611.625) scale(3.605)"><rect width="6" height="6"/></g>
<g transform="translate(905.625,611.625) scale(3.605)"><rect width="6" height="6"/></g>
<g transform="translate(170.625,632.625) scale(3.605)"><rect width="6" height="6"/></g>
<g transform="translate(212.625,632.625) scale(3.605)"><rect width="6" height="6"/></g>
<g transform="translate(254.625,632.625) scale(3.605)"><rect width="6" height="6"/></g>
<g transform="translate(275.625,632.625) scale(3.605)"><rect width="6" height="6"/></g>
<g transform="translate(296.625,632.625) scale(3.605)"><rect width="6" height="6"/></g>
<g transform="translate(380.625,632.625) scale(3.605)"><rect width="6" height="6"/></g>
<g transform="translate(401.625,632.625) scale(3.605)"><rect width="6" height="6"/></g>
<g transform="translate(422.625,632.625) scale(3.605)"><rect width="6" height="6"/></g>
<g transform="translate(443.625,632.625) scale(3.605)"><rect width="6" height="6"/></g>
<g transform="translate(485.625,632.625) scale(3.605)"><rect width="6" height="6"/></g>
<g transform="translate(569.625,632.625) scale(3.605)"><rect width="6" height="6"/></g>
<g transform="translate(611.625,632.625) scale(3.605)"><rect width="6" height="6"/></g>
<g transform="translate(632.625,632.625) scale(3.605)"><rect width="6" height="6"/></g>
<g transform="translate(695.625,632.625) scale(3.605)"><rect width="6" height="6"/></g>
<g transform="translate(779.625,632.625) scale(3.605)"><rect width="6" height="6"/></g>
<g transform="translate(821.625,632.625) scale(3.605)"><rect width="6" height="6"/></g>
<g transform="translate(842.625,632.625) scale(3.605)"><rect width="6" height="6"/></g>
<g transform="translate(905.625,632.625) scale(3.605)"><rect width="6" height="6"/></g>
<g transform="translate(107.625,653.625) scale(3.605)"><rect width="6" height="6"/></g>
<g transform="translate(128.625,653.625) scale(3.605)"><rect width="6" height="6"/></g>
<g transform="translate(149.625,653.625) scale(3.605)"><rect width="6" height="6"/></g>
<g transform="translate(191.625,653.625) scale(3.605)"><rect width="6" height="6"/></g>
<g transform="translate(212.625,653.625) scale(3.605)"><rect width="6" height="6"/></g>
<g transform="translate(233.625,653.625) scale(3.605)"><rect width="6" height="6"/></g>
<g transform="translate(254.625,653.625) scale(3.605)"><rect width="6" height="6"/></g>
<g transform="translate(359.625,653.625) scale(3.605)"><rect width="6" height="6"/></g>
<g transform="translate(380.625,653.625) scale(3.605)"><rect width="6" height="6"/></g>
<g transform="translate(443.625,653.625) scale(3.605)"><rect width="6" height="6"/></g>
<g transform="translate(485.625,653.625) scale(3.605)"><rect width="6" height="6"/></g>
<g transform="translate(569.625,653.625) scale(3.605)"><rect width="6" height="6"/></g>
<g transform="translate(590.625,653.625) scale(3.605)"><rect width="6" height="6"/></g>
<g transform="translate(611.625,653.625) scale(3.605)"><rect width="6" height="6"/></g>
<g transform="translate(800.625,653.625) scale(3.605)"><rect width="6" height="6"/></g>
<g transform="translate(905.625,653.625) scale(3.605)"><rect width="6" height="6"/></g>
<g transform="translate(926.625,653.625) scale(3.605)"><rect width="6" height="6"/></g>
<g transform="translate(947.625,653.625) scale(3.605)"><rect width="6" height="6"/></g>
<g transform="translate(107.625,674.625) scale(3.605)"><rect width="6" height="6"/></g>
<g transform="translate(128.625,674.625) scale(3.605)"><rect width="6" height="6"/></g>
<g transform="translate(191.625,674.625) scale(3.605)"><rect width="6" height="6"/></g>
<g transform="translate(212.625,674.625) scale(3.605)"><rect width="6" height="6"/></g>
<g transform="translate(254.625,674.625) scale(3.605)"><rect width="6" height="6"/></g>
<g transform="translate(275.625,674.625) scale(3.605)"><rect width="6" height="6"/></g>
<g transform="translate(317.625,674.625) scale(3.605)"><rect width="6" height="6"/></g>
<g transform="translate(401.625,674.625) scale(3.605)"><rect width="6" height="6"/></g>
<g transform="translate(506.625,674.625) scale(3.605)"><rect width="6" height="6"/></g>
<g transform="translate(527.625,674.625) scale(3.605)"><rect width="6" height="6"/></g>
<g transform="translate(548.625,674.625) scale(3.605)"><rect width="6" height="6"/></g>
<g transform="translate(569.625,674.625) scale(3.605)"><rect width="6" height="6"/></g>
<g transform="translate(590.625,674.625) scale(3.605)"><rect width="6" height="6"/></g>
<g transform="translate(611.625,674.625) scale(3.605)"><rect width="6" height="6"/></g>
<g transform="translate(632.625,674.625) scale(3.605)"><rect width="6" height="6"/></g>
<g transform="translate(695.625,674.625) scale(3.605)"><rect width="6" height="6"/></g>
<g transform="translate(737.625,674.625) scale(3.605)"><rect width="6" height="6"/></g>
<g transform="translate(779.625,674.625) scale(3.605)"><rect width="6" height="6"/></g>
<g transform="translate(842.625,674.625) scale(3.605)"><rect width="6" height="6"/></g>
<g transform="translate(863.625,674.625) scale(3.605)"><rect width="6" height="6"/></g>
<g transform="translate(884.625,674.625) scale(3.605)"><rect width="6" height="6"/></g>
<g transform="translate(107.625,695.625) scale(3.605)"><rect width="6" height="6"/></g>
<g transform="translate(128.625,695.625) scale(3.605)"><rect width="6" height="6"/></g>
<g transform="translate(170.625,695.625) scale(3.605)"><rect width="6" height="6"/></g>
<g transform="translate(233.625,695.625) scale(3.605)"><rect width="6" height="6"/></g>
<g transform="translate(254.625,695.625) scale(3.605)"><rect width="6" height="6"/></g>
<g transform="translate(275.625,695.625) scale(3.605)"><rect width="6" height="6"/></g>
<g transform="translate(296.625,695.625) scale(3.605)"><rect width="6" height="6"/></g>
<g transform="translate(338.625,695.625) scale(3.605)"><rect width="6" height="6"/></g>
<g transform="translate(464.625,695.625) scale(3.605)"><rect width="6" height="6"/></g>
<g transform="translate(506.625,695.625) scale(3.605)"><rect width="6" height="6"/></g>
<g transform="translate(548.625,695.625) scale(3.605)"><rect width="6" height="6"/></g>
<g transform="translate(590.625,695.625) scale(3.605)"><rect width="6" height="6"/></g>
<g transform="translate(632.625,695.625) scale(3.605)"><rect width="6" height="6"/></g>
<g transform="translate(653.625,695.625) scale(3.605)"><rect width="6" height="6"/></g>
<g transform="translate(674.625,695.625) scale(3.605)"><rect width="6" height="6"/></g>
<g transform="translate(695.625,695.625) scale(3.605)"><rect width="6" height="6"/></g>
<g transform="translate(737.625,695.625) scale(3.605)"><rect width="6" height="6"/></g>
<g transform="translate(800.625,695.625) scale(3.605)"><rect width="6" height="6"/></g>
<g transform="translate(884.625,695.625) scale(3.605)"><rect width="6" height="6"/></g>
<g transform="translate(107.625,716.625) scale(3.605)"><rect width="6" height="6"/></g>
<g transform="translate(128.625,716.625) scale(3.605)"><rect width="6" height="6"/></g>
<g transform="translate(191.625,716.625) scale(3.605)"><rect width="6" height="6"/></g>
<g transform="translate(254.625,716.625) scale(3.605)"><rect width="6" height="6"/></g>
<g transform="translate(296.625,716.625) scale(3.605)"><rect width="6" height="6"/></g>
<g transform="translate(317.625,716.625) scale(3.605)"><rect width="6" height="6"/></g>
<g transform="translate(338.625,716.625) scale(3.605)"><rect width="6" height="6"/></g>
<g transform="translate(359.625,716.625) scale(3.605)"><rect width="6" height="6"/></g>
<g transform="translate(380.625,716.625) scale(3.605)"><rect width="6" height="6"/></g>
<g transform="translate(401.625,716.625) scale(3.605)"><rect width="6" height="6"/></g>
<g transform="translate(443.625,716.625) scale(3.605)"><rect width="6" height="6"/></g>
<g transform="translate(464.625,716.625) scale(3.605)"><rect width="6" height="6"/></g>
<g transform="translate(485.625,716.625) scale(3.605)"><rect width="6" height="6"/></g>
<g transform="translate(527.625,716.625) scale(3.605)"><rect width="6" height="6"/></g>
<g transform="translate(548.625,716.625) scale(3.605)"><rect width="6" height="6"/></g>
<g transform="translate(590.625,716.625) scale(3.605)"><rect width="6" height="6"/></g>
<g transform="translate(611.625,716.625) scale(3.605)"><rect width="6" height="6"/></g>
<g transform="translate(653.625,716.625) scale(3.605)"><rect width="6" height="6"/></g>
<g transform="translate(674.625,716.625) scale(3.605)"><rect width="6" height="6"/></g>
<g transform="translate(737.625,716.625) scale(3.605)"><rect width="6" height="6"/></g>
<g transform="translate(779.625,716.625) scale(3.605)"><rect width="6" height="6"/></g>
<g transform="translate(842.625,716.625) scale(3.605)"><rect width="6" height="6"/></g>
<g transform="translate(863.625,716.625) scale(3.605)"><rect width="6" height="6"/></g>
<g transform="translate(107.625,737.625) scale(3.605)"><rect width="6" height="6"/></g>
<g transform="translate(149.625,737.625) scale(3.605)"><rect width="6" height="6"/></g>
<g transform="translate(233.625,737.625) scale(3.605)"><rect width="6" height="6"/></g>
<g transform="translate(317.625,737.625) scale(3.605)"><rect width="6" height="6"/></g>
<g transform="translate(338.625,737.625) scale(3.605)"><rect width="6" height="6"/></g>
<g transform="translate(359.625,737.625) scale(3.605)"><rect width="6" height="6"/></g>
<g transform="translate(380.625,737.625) scale(3.605)"><rect width="6" height="6"/></g>
<g transform="translate(422.625,737.625) scale(3.605)"><rect width="6" height="6"/></g>
<g transform="translate(506.625,737.625) scale(3.605)"><rect width="6" height="6"/></g>
<g transform="translate(569.625,737.625) scale(3.605)"><rect width="6" height="6"/></g>
<g transform="translate(611.625,737.625) scale(3.605)"><rect width="6" height="6"/></g>
<g transform="translate(632.625,737.625) scale(3.605)"><rect width="6" height="6"/></g>
<g transform="translate(674.625,737.625) scale(3.605)"><rect width="6" height="6"/></g>
<g transform="translate(695.625,737.625) scale(3.605)"><rect width="6" height="6"/></g>
<g transform="translate(716.625,737.625) scale(3.605)"><rect width="6" height="6"/></g>
<g transform="translate(737.625,737.625) scale(3.605)"><rect width="6" height="6"/></g>
<g transform="translate(758.625,737.625) scale(3.605)"><rect width="6" height="6"/></g>
<g transform="translate(821.625,737.625) scale(3.605)"><rect width="6" height="6"/></g>
<g transform="translate(842.625,737.625) scale(3.605)"><rect width="6" height="6"/></g>
<g transform="translate(884.625,737.625) scale(3.605)"><rect width="6" height="6"/></g>
<g transform="translate(905.625,737.625) scale(3.605)"><rect width="6" height="6"/></g>
<g transform="translate(926.625,737.625) scale(3.605)"><rect width="6" height="6"/></g>
<g transform="translate(947.625,737.625) scale(3.605)"><rect width="6" height="6"/></g>
<g transform="translate(107.625,758.625) scale(3.605)"><rect width="6" height="6"/></g>
<g transform="translate(296.625,758.625) scale(3.605)"><rect width="6" height="6"/></g>
<g transform="translate(317.625,758.625) scale(3.605)"><rect width="6" height="6"/></g>
<g transform="translate(359.625,758.625) scale(3.605)"><rect width="6" height="6"/></g>
<g transform="translate(380.625,758.625) scale(3.605)"><rect width="6" height="6"/></g>
<g transform="translate(401.625,758.625) scale(3.605)"><rect width="6" height="6"/></g>
<g transform="translate(443.625,758.625) scale(3.605)"><rect width="6" height="6"/></g>
<g transform="translate(464.625,758.625) scale(3.605)"><rect width="6" height="6"/></g>
<g transform="translate(653.625,758.625) scale(3.605)"><rect width="6" height="6"/></g>
<g transform="translate(674.625,758.625) scale(3.605)"><rect width="6" height="6"/></g>
<g transform="translate(716.625,758.625) scale(3.605)"><rect width="6" height="6"/></g>
<g transform="translate(758.625,758.625) scale(3.605)"><rect width="6" height="6"/></g>
<g transform="translate(779.625,758.625) scale(3.605)"><rect width="6" height="6"/></g>
<g transform="translate(800.625,758.625) scale(3.605)"><rect width="6" height="6"/></g>
<g transform="translate(863.625,758.625) scale(3.605)"><rect width="6" height="6"/></g>
<g transform="translate(884.625,758.625) scale(3.605)"><rect width="6" height="6"/></g>
<g transform="translate(926.625,758.625) scale(3.605)"><rect width="6" height="6"/></g>
<g transform="translate(947.625,758.625) scale(3.605)"><rect width="6" height="6"/></g>
<g transform="translate(107.625,779.625) scale(3.605)"><rect width="6" height="6"/></g>
<g transform="translate(191.625,779.625) scale(3.605)"><rect width="6" height="6"/></g>
<g transform="translate(212.625,779.625) scale(3.605)"><rect width="6" height="6"/></g>
<g transform="translate(233.625,779.625) scale(3.605)"><rect width="6" height="6"/></g>
<g transform="translate(338.625,779.625) scale(3.605)"><rect width="6" height="6"/></g>
<g transform="translate(359.625,779.625) scale(3.605)"><rect width="6" height="6"/></g>
<g transform="translate(422.625,779.625) scale(3.605)"><rect width="6" height="6"/></g>
<g transform="translate(443.625,779.625) scale(3.605)"><rect width="6" height="6"/></g>
<g transform="translate(485.625,779.625) scale(3.605)"><rect width="6" height="6"/></g>
<g transform="translate(506.625,779.625) scale(3.605)"><rect width="6" height="6"/></g>
<g transform="translate(527.625,779.625) scale(3.605)"><rect width="6" height="6"/></g>
<g transform="translate(569.625,779.625) scale(3.605)"><rect width="6" height="6"/></g>
<g transform="translate(674.625,779.625) scale(3.605)"><rect width="6" height="6"/></g>
<g transform="translate(716.625,779.625) scale(3.605)"><rect width="6" height="6"/></g>
<g transform="translate(737.625,779.625) scale(3.605)"><rect width="6" height="6"/></g>
<g transform="translate(758.625,779.625) scale(3.605)"><rect width="6" height="6"/></g>
<g transform="translate(779.625,779.625) scale(3.605)"><rect width="6" height="6"/></g>
<g transform="translate(800.625,779.625) scale(3.605)"><rect width="6" height="6"/></g>
<g transform="translate(821.625,779.625) scale(3.605)"><rect width="6" height="6"/></g>
<g transform="translate(842.625,779.625) scale(3.605)"><rect width="6" height="6"/></g>
<g transform="translate(863.625,779.625) scale(3.605)"><rect width="6" height="6"/></g>
<g transform="translate(275.625,800.625) scale(3.605)"><rect width="6" height="6"/></g>
<g transform="translate(317.625,800.625) scale(3.605)"><rect width="6" height="6"/></g>
<g transform="translate(338.625,800.625) scale(3.605)"><rect width="6" height="6"/></g>
<g transform="translate(422.625,800.625) scale(3.605)"><rect width="6" height="6"/></g>
<g transform="translate(443.625,800.625) scale(3.605)"><rect width="6" height="6"/></g>
<g transform="translate(464.625,800.625) scale(3.605)"><rect width="6" height="6"/></g>
<g transform="translate(485.625,800.625) scale(3.605)"><rect width="6" height="6"/></g>
<g transform="translate(590.625,800.625) scale(3.605)"><rect width="6" height="6"/></g>
<g transform="translate(611.625,800.625) scale(3.605)"><rect width="6" height="6"/></g>
<g transform="translate(653.625,800.625) scale(3.605)"><rect width="6" height="6"/></g>
<g transform="translate(716.625,800.625) scale(3.605)"><rect width="6" height="6"/></g>
<g transform="translate(758.625,800.625) scale(3.605)"><rect width="6" height="6"/></g>
<g transform="translate(779.625,800.625) scale(3.605)"><rect width="6" height="6"/></g>
<g transform="translate(863.625,800.625) scale(3.605)"><rect width="6" height="6"/></g>
<g transform="translate(884.625,800.625) scale(3.605)"><rect width="6" height="6"/></g>
<g transform="translate(926.625,800.625) scale(3.605)"><rect width="6" height="6"/></g>
<g transform="translate(296.625,821.625) scale(3.605)"><rect width="6" height="6"/></g>
<g transform="translate(359.625,821.625) scale(3.605)"><rect width="6" height="6"/></g>
<g transform="translate(401.625,821.625) scale(3.605)"><rect width="6" height="6"/></g>
<g transform="translate(443.625,821.625) scale(3.605)"><rect width="6" height="6"/></g>
<g transform="translate(464.625,821.625) scale(3.605)"><rect width="6" height="6"/></g>
<g transform="translate(527.625,821.625) scale(3.605)"><rect width="6" height="6"/></g>
<g transform="translate(590.625,821.625) scale(3.605)"><rect width="6" height="6"/></g>
<g transform="translate(611.625,821.625) scale(3.605)"><rect width="6" height="6"/></g>
<g transform="translate(653.625,821.625) scale(3.605)"><rect width="6" height="6"/></g>
<g transform="translate(674.625,821.625) scale(3.605)"><rect width="6" height="6"/></g>
<g transform="translate(716.625,821.625) scale(3.605)"><rect width="6" height="6"/></g>
<g transform="translate(758.625,821.625) scale(3.605)"><rect width="6" height="6"/></g>
<g transform="translate(779.625,821.625) scale(3.605)"><rect width="6" height="6"/></g>
<g transform="translate(821.625,821.625) scale(3.605)"><rect width="6" height="6"/></g>
<g transform="translate(863.625,821.625) scale(3.605)"><rect width="6" height="6"/></g>
<g transform="translate(905.625,821.625) scale(3.605)"><rect width="6" height="6"/></g>
<g transform="translate(296.625,842.625) scale(3.605)"><rect width="6" height="6"/></g>
<g transform="translate(317.625,842.625) scale(3.605)"><rect width="6" height="6"/></g>
<g transform="translate(359.625,842.625) scale(3.605)"><rect width="6" height="6"/></g>
<g transform="translate(380.625,842.625) scale(3.605)"><rect width="6" height="6"/></g>
<g transform="translate(443.625,842.625) scale(3.605)"><rect width="6" height="6"/></g>
<g transform="translate(464.625,842.625) scale(3.605)"><rect width="6" height="6"/></g>
<g transform="translate(527.625,842.625) scale(3.605)"><rect width="6" height="6"/></g>
<g transform="translate(548.625,842.625) scale(3.605)"><rect width="6" height="6"/></g>
<g transform="translate(569.625,842.625) scale(3.605)"><rect width="6" height="6"/></g>
<g transform="translate(611.625,842.625) scale(3.605)"><rect width="6" height="6"/></g>
<g transform="translate(674.625,842.625) scale(3.605)"><rect width="6" height="6"/></g>
<g transform="translate(695.625,842.625) scale(3.605)"><rect width="6" height="6"/></g>
<g transform="translate(716.625,842.625) scale(3.605)"><rect width="6" height="6"/></g>
<g transform="translate(737.625,842.625) scale(3.605)"><rect width="6" height="6"/></g>
<g transform="translate(779.625,842.625) scale(3.605)"><rect width="6" height="6"/></g>
<g transform="translate(863.625,842.625) scale(3.605)"><rect width="6" height="6"/></g>
<g transform="translate(947.625,842.625) scale(3.605)"><rect width="6" height="6"/></g>
<g transform="translate(275.625,863.625) scale(3.605)"><rect width="6" height="6"/></g>
<g transform="translate(317.625,863.625) scale(3.605)"><rect width="6" height="6"/></g>
<g transform="translate(380.625,863.625) scale(3.605)"><rect width="6" height="6"/></g>
<g transform="translate(464.625,863.625) scale(3.605)"><rect width="6" height="6"/></g>
<g transform="translate(485.625,863.625) scale(3.605)"><rect width="6" height="6"/></g>
<g transform="translate(527.625,863.625) scale(3.605)"><rect width="6" height="6"/></g>
<g transform="translate(569.625,863.625) scale(3.605)"><rect width="6" height="6"/></g>
<g transform="translate(590.625,863.625) scale(3.605)"><rect width="6" height="6"/></g>
<g transform="translate(611.625,863.625) scale(3.605)"><rect width="6" height="6"/></g>
<g transform="translate(632.625,863.625) scale(3.605)"><rect width="6" height="6"/></g>
<g transform="translate(653.625,863.625) scale(3.605)"><rect width="6" height="6"/></g>
<g transform="translate(674.625,863.625) scale(3.605)"><rect width="6" height="6"/></g>
<g transform="translate(695.625,863.625) scale(3.605)"><rect width="6" height="6"/></g>
<g transform="translate(779.625,863.625) scale(3.605)"><rect width="6" height="6"/></g>
<g transform="translate(800.625,863.625) scale(3.605)"><rect width="6" height="6"/></g>
<g transform="translate(821.625,863.625) scale(3.605)"><rect width="6" height="6"/></g>
<g transform="translate(842.625,863.625) scale(3.605)"><rect width="6" height="6"/></g>
<g transform="translate(863.625,863.625) scale(3.605)"><rect width="6" height="6"/></g>
<g transform="translate(884.625,863.625) scale(3.605)"><rect width="6" height="6"/></g>
<g transform="translate(905.625,863.625) scale(3.605)"><rect width="6" height="6"/></g>
<g transform="translate(275.625,884.625) scale(3.605)"><rect width="6" height="6"/></g>
<g transform="translate(317.625,884.625) scale(3.605)"><rect width="6" height="6"/></g>
<g transform="translate(359.625,884.625) scale(3.605)"><rect width="6" height="6"/></g>
<g transform="translate(380.625,884.625) scale(3.605)"><rect width="6" height="6"/></g>
<g transform="translate(422.625,884.625) scale(3.605)"><rect width="6" height="6"/></g>
<g transform="translate(506.625,884.625) scale(3.605)"><rect width="6" height="6"/></g>
<g transform="translate(527.625,884.625) scale(3.605)"><rect width="6" height="6"/></g>
<g transform="translate(548.625,884.625) scale(3.605)"><rect width="6" height="6"/></g>
<g transform="translate(569.625,884.625) scale(3.605)"><rect width="6" height="6"/></g>
<g transform="translate(590.625,884.625) scale(3.605)"><rect width="6" height="6"/></g>
<g transform="translate(695.625,884.625) scale(3.605)"><rect width="6" height="6"/></g>
<g transform="translate(737.625,884.625) scale(3.605)"><rect width="6" height="6"/></g>
<g transform="translate(758.625,884.625) scale(3.605)"><rect width="6" height="6"/></g>
<g transform="translate(842.625,884.625) scale(3.605)"><rect width="6" height="6"/></g>
<g transform="translate(926.625,884.625) scale(3.605)"><rect width="6" height="6"/></g>
<g transform="translate(275.625,905.625) scale(3.605)"><rect width="6" height="6"/></g>
<g transform="translate(422.625,905.625) scale(3.605)"><rect width="6" height="6"/></g>
<g transform="translate(443.625,905.625) scale(3.605)"><rect width="6" height="6"/></g>
<g transform="translate(464.625,905.625) scale(3.605)"><rect width="6" height="6"/></g>
<g transform="translate(506.625,905.625) scale(3.605)"><rect width="6" height="6"/></g>
<g transform="translate(527.625,905.625) scale(3.605)"><rect width="6" height="6"/></g>
<g transform="translate(548.625,905.625) scale(3.605)"><rect width="6" height="6"/></g>
<g transform="translate(590.625,905.625) scale(3.605)"><rect width="6" height="6"/></g>
<g transform="translate(611.625,905.625) scale(3.605)"><rect width="6" height="6"/></g>
<g transform="translate(653.625,905.625) scale(3.605)"><rect width="6" height="6"/></g>
<g transform="translate(674.625,905.625) scale(3.605)"><rect width="6" height="6"/></g>
<g transform="translate(716.625,905.625) scale(3.605)"><rect width="6" height="6"/></g>
<g transform="translate(758.625,905.625) scale(3.605)"><rect width="6" height="6"/></g>
<g transform="translate(800.625,905.625) scale(3.605)"><rect width="6" height="6"/></g>
<g transform="translate(821.625,905.625) scale(3.605)"><rect width="6" height="6"/></g>
<g transform="translate(863.625,905.625) scale(3.605)"><rect width="6" height="6"/></g>
<g transform="translate(884.625,905.625) scale(3.605)"><rect width="6" height="6"/></g>
<g transform="translate(905.625,905.625) scale(3.605)"><rect width="6" height="6"/></g>
<g transform="translate(926.625,905.625) scale(3.605)"><rect width="6" height="6"/></g>
<g transform="translate(317.625,926.625) scale(3.605)"><rect width="6" height="6"/></g>
<g transform="translate(338.625,926.625) scale(3.605)"><rect width="6" height="6"/></g>
<g transform="translate(359.625,926.625) scale(3.605)"><rect width="6" height="6"/></g>
<g transform="translate(401.625,926.625) scale(3.605)"><rect width="6" height="6"/></g>
<g transform="translate(443.625,926.625) scale(3.605)"><rect width="6" height="6"/></g>
<g transform="translate(485.625,926.625) scale(3.605)"><rect width="6" height="6"/></g>
<g transform="translate(527.625,926.625) scale(3.605)"><rect width="6" height="6"/></g>
<g transform="translate(548.625,926.625) scale(3.605)"><rect width="6" height="6"/></g>
<g transform="translate(611.625,926.625) scale(3.605)"><rect width="6" height="6"/></g>
<g transform="translate(695.625,926.625) scale(3.605)"><rect width="6" height="6"/></g>
<g transform="translate(716.625,926.625) scale(3.605)"><rect width="6" height="6"/></g>
<g transform="translate(737.625,926.625) scale(3.605)"><rect width="6" height="6"/></g>
<g transform="translate(758.625,926.625) scale(3.605)"><rect width="6" height="6"/></g>
<g transform="translate(842.625,926.625) scale(3.605)"><rect width="6" height="6"/></g>
<g transform="translate(905.625,926.625) scale(3.605)"><rect width="6" height="6"/></g>
<g transform="translate(926.625,926.625) scale(3.605)"><rect width="6" height="6"/></g>
<g transform="translate(947.625,926.625) scale(3.605)"><rect width="6" height="6"/></g>
<g transform="translate(317.625,947.625) scale(3.605)"><rect width="6" height="6"/></g>
<g transform="translate(359.625,947.625) scale(3.605)"><rect width="6" height="6"/></g>
<g transform="translate(380.625,947.625) scale(3.605)"><rect width="6" height="6"/></g>
<g transform="translate(401.625,947.625) scale(3.605)"><rect width="6" height="6"/></g>
<g transform="translate(485.625,947.625) scale(3.605)"><rect width="6" height="6"/></g>
<g transform="translate(506.625,947.625) scale(3.605)"><rect width="6" height="6"/></g>
<g transform="translate(548.625,947.625) scale(3.605)"><rect width="6" height="6"/></g>
<g transform="translate(569.625,947.625) scale(3.605)"><rect width="6" height="6"/></g>
<g transform="translate(590.625,947.625) scale(3.605)"><rect width="6" height="6"/></g>
<g transform="translate(632.625,947.625) scale(3.605)"><rect width="6" height="6"/></g>
<g transform="translate(653.625,947.625) scale(3.605)"><rect width="6" height="6"/></g>
<g transform="translate(674.625,947.625) scale(3.605)"><rect width="6" height="6"/></g>
<g transform="translate(695.625,947.625) scale(3.605)"><rect width="6" height="6"/></g>
<g transform="translate(716.625,947.625) scale(3.605)"><rect width="6" height="6"/></g>
<g transform="translate(737.625,947.625) scale(3.605)"><rect width="6" height="6"/></g>
<g transform="translate(800.625,947.625) scale(3.605)"><rect width="6" height="6"/></g>
<g transform="translate(821.625,947.625) scale(3.605)"><rect width="6" height="6"/></g>
<g transform="translate(842.625,947.625) scale(3.605)"><rect width="6" height="6"/></g>
<g transform="translate(884.625,947.625) scale(3.605)"><rect width="6" height="6"/></g>
<g transform="translate(905.625,947.625) scale(3.605)"><rect width="6" height="6"/></g>
<g transform="translate(926.625,947.625) scale(3.605)"><rect width="6" height="6"/></g>
</g><g fill="#000000" transform="scale(44.84375)"><path d="M1.3,24l21.3,0c0.7,0,1.3-0.6,1.3-1.3l0-21.3C24,0.6,23.4,0,22.7,0L1.3,0C0.6,0,0,0.6,0,1.3l0,21.3 C0,23.4,0.6,24,1.3,24z M1,2c0-0.6,0.5-1,1-1l20,0c0.6,0,1,0.5,1,1v20c0,0.6-0.5,1-1,1L2,23c-0.6,0-1-0.5-1-1V2z"/><path d="M1,30h22c0.5,0,1-0.4,1-1v-3c0-0.5-0.4-1-1-1H13l-1-1l-1,1H1c-0.5,0-1,0.4-1,1v3C0,29.6,0.4,30,1,30z"/></g>
<g><g transform="translate(107.625,107.625)"  fill="#000000"><g transform="scale(10.5)"><path d="M0,0v14h14V0H0z M12,12H2V2h10V12z"/></g></g>
<g transform="translate(821.625,107.625)"  fill="#000000"><g transform="scale(10.5)"><path d="M0,0v14h14V0H0z M12,12H2V2h10V12z"/></g></g>
<g transform="translate(107.625,821.625)"  fill="#000000"><g transform="scale(10.5)"><path d="M0,0v14h14V0H0z M12,12H2V2h10V12z"/></g></g>
<g transform="translate(149.625,149.625)"  fill="#000000"><g transform="scale(10.5)"><rect width="6" height="6"/></g></g>
<g transform="translate(863.625,149.625)"  fill="#000000"><g transform="scale(10.5)"><rect width="6" height="6"/></g></g>
<g transform="translate(149.625,863.625)"  fill="#000000"><g transform="scale(10.5)"><rect width="6" height="6"/></g></g></g>
<text fill="#FFFFFF" font-family="Arial, Helvetica, sans-serif" font-size="124.553515625px" text-anchor="middle" x="525.625" y="160.01457331731" transform="translate(0,1121.09375)">Email us</text></svg>